HIERARCHY
ROOT hips
{
  OFFSET 0.0000 0.0000 0.0000
  CHANNELS 6 Xposition Yposition Zposition Zrotation Xrotation Yrotation
  JOINT Lupleg
  {
    OFFSET -0.0172 -3.2113 -0.0760
    CHANNELS 3 Zrotation Xrotation Yrotation
    JOINT Lupleg_roll
    {
      OFFSET 6.5042 -0.0000 0.0000
      CHANNELS 3 Zrotation Xrotation Yrotation
      JOINT Lleg
      {
        OFFSET 6.5042 0.0000 -0.0000
        CHANNELS 3 Zrotation Xrotation Yrotation
        JOINT Lleg_roll
        {
          OFFSET 6.7576 -0.0000 -0.0000
          CHANNELS 3 Zrotation Xrotation Yrotation
          JOINT Lfoot
          {
            OFFSET 6.7576 0.0000 -0.0000
            CHANNELS 3 Zrotation Xrotation Yrotation
            JOINT Ltoes
            {
              OFFSET 4.7376 -0.0000 0.0000
              CHANNELS 3 Zrotation Xrotation Yrotation
              End Site
              {
                  OFFSET 2.7217 0.0000 -0.0000
              }
            }
          }
        }
      }
    }
  }
  JOINT Rupleg
  {
    OFFSET -3.1941 0.3307 -0.0815
    CHANNELS 3 Zrotation Xrotation Yrotation
    JOINT Rupleg_roll
    {
      OFFSET 6.5041 0.0000 -0.0000
      CHANNELS 3 Zrotation Xrotation Yrotation
      JOINT Rleg
      {
        OFFSET 6.5042 -0.0000 0.0000
        CHANNELS 3 Zrotation Xrotation Yrotation
        JOINT Rleg_roll
        {
          OFFSET 6.7577 0.0000 -0.0000
          CHANNELS 3 Zrotation Xrotation Yrotation
          JOINT Rfoot
          {
            OFFSET 6.7577 0.0000 -0.0000
            CHANNELS 3 Zrotation Xrotation Yrotation
            JOINT Rtoes
            {
              OFFSET 4.7376 0.0000 -0.0000
              CHANNELS 3 Zrotation Xrotation Yrotation
              End Site
              {
                  OFFSET 2.7217 0.0000 0.0000
              }
            }
          }
        }
      }
    }
  }
  JOINT spine
  {
    OFFSET 0.9990 0.8959 -0.0879
    CHANNELS 3 Zrotation Xrotation Yrotation
    JOINT spine1
    {
      OFFSET 1.5198 0.0000 0.0000
      CHANNELS 3 Zrotation Xrotation Yrotation
      JOINT spine2
      {
        OFFSET 1.5671 -0.0000 -0.0000
        CHANNELS 3 Zrotation Xrotation Yrotation
        JOINT spine3
        {
          OFFSET 1.6903 -0.0000 -0.0000
          CHANNELS 3 Zrotation Xrotation Yrotation
          JOINT spine4
          {
            OFFSET 1.3347 0.0000 -0.0000
            CHANNELS 3 Zrotation Xrotation Yrotation
            JOINT spine5
            {
              OFFSET 1.5174 0.0000 0.0000
              CHANNELS 3 Zrotation Xrotation Yrotation
              JOINT spine6
              {
                OFFSET 1.5215 0.0000 0.0000
                CHANNELS 3 Zrotation Xrotation Yrotation
                JOINT spine7
                {
                  OFFSET 1.5183 0.0000 0.0000
                  CHANNELS 3 Zrotation Xrotation Yrotation
                  JOINT spine8
                  {
                    OFFSET 1.5237 -0.0000 0.0000
                    CHANNELS 3 Zrotation Xrotation Yrotation
                    JOINT spine9
                    {
                      OFFSET 1.5152 0.0000 0.0000
                      CHANNELS 3 Zrotation Xrotation Yrotation
                      JOINT neck
                      {
                        OFFSET 1.0660 -0.0000 0.0000
                        CHANNELS 3 Zrotation Xrotation Yrotation
                        JOINT head
                        {
                          OFFSET 3.7854 0.0000 0.0000
                          CHANNELS 3 Zrotation Xrotation Yrotation
                          End Site
                          {
                              OFFSET 4.0607 0.0000 0.0000
                          }
                        }
                      }
                      JOINT Lshoulder
                      {
                        OFFSET -0.6763 0.0210 -1.0220
                        CHANNELS 3 Zrotation Xrotation Yrotation
                        JOINT Larm
                        {
                          OFFSET 4.3385 0.0000 0.0000
                          CHANNELS 3 Zrotation Xrotation Yrotation
                          JOINT Larm_roll
                          {
                            OFFSET 3.9410 -0.0000 0.0000
                            CHANNELS 3 Zrotation Xrotation Yrotation
                            JOINT Lforearm
                            {
                              OFFSET 3.9410 -0.0000 0.0000
                              CHANNELS 3 Zrotation Xrotation Yrotation
                              JOINT Lforearmroll
                              {
                                OFFSET 4.4561 0.0000 0.0000
                                CHANNELS 3 Zrotation Xrotation Yrotation
                                JOINT Lhand
                                {
                                  OFFSET 4.4566 0.0000 0.0000
                                  CHANNELS 3 Zrotation Xrotation Yrotation
                                  JOINT Lmiddle1
                                  {
                                    OFFSET 2.7267 -0.0000 0.0000
                                    CHANNELS 3 Zrotation Xrotation Yrotation
                                    JOINT Lmiddle2
                                    {
                                      OFFSET 1.1590 0.0000 0.0000
                                      CHANNELS 3 Zrotation Xrotation Yrotation
                                      JOINT Lmiddle3
                                      {
                                        OFFSET 1.1963 -0.0000 0.0000
                                        CHANNELS 3 Zrotation Xrotation Yrotation
                                        End Site
                                        {
                                            OFFSET 1.0712 0.0000 -0.0000
                                        }
                                      }
                                    }
                                  }
                                  JOINT Lthumb1
                                  {
                                    OFFSET 0.4559 -0.3316 0.4171
                                    CHANNELS 3 Zrotation Xrotation Yrotation
                                    JOINT Lthumb2
                                    {
                                      OFFSET 1.6118 0.0000 0.0000
                                      CHANNELS 3 Zrotation Xrotation Yrotation
                                      JOINT Lthumb3
                                      {
                                        OFFSET 1.3772 0.0000 0.0000
                                        CHANNELS 3 Zrotation Xrotation Yrotation
                                        End Site
                                        {
                                            OFFSET 1.1405 -0.0000 -0.0000
                                        }
                                      }
                                    }
                                  }
                                  JOINT Lindex1
                                  {
                                    OFFSET 2.5330 0.0283 0.7927
                                    CHANNELS 3 Zrotation Xrotation Yrotation
                                    JOINT Lindex2
                                    {
                                      OFFSET 1.0986 0.0000 0.0000
                                      CHANNELS 3 Zrotation Xrotation Yrotation
                                      JOINT Lindex3
                                      {
                                        OFFSET 1.0835 -0.0000 0.0000
                                        CHANNELS 3 Zrotation Xrotation Yrotation
                                        End Site
                                        {
                                            OFFSET 1.1422 -0.0000 -0.0000
                                        }
                                      }
                                    }
                                  }
                                  JOINT Lring1
                                  {
                                    OFFSET 2.4795 -0.2766 -0.6565
                                    CHANNELS 3 Zrotation Xrotation Yrotation
                                    JOINT Lring2
                                    {
                                      OFFSET 1.0727 -0.0000 0.0000
                                      CHANNELS 3 Zrotation Xrotation Yrotation
                                      JOINT Lring3
                                      {
                                        OFFSET 0.8216 0.0000 0.0000
                                        CHANNELS 3 Zrotation Xrotation Yrotation
                                        End Site
                                        {
                                            OFFSET 1.1344 -0.0000 -0.0000
                                        }
                                      }
                                    }
                                  }
                                  JOINT Lpinky1
                                  {
                                    OFFSET 2.0231 -0.4888 -1.3889
                                    CHANNELS 3 Zrotation Xrotation Yrotation
                                    JOINT Lpinky2
                                    {
                                      OFFSET 0.8723 0.0000 0.0000
                                      CHANNELS 3 Zrotation Xrotation Yrotation
                                      JOINT Lpinky3
                                      {
                                        OFFSET 0.7154 0.0000 0.0000
                                        CHANNELS 3 Zrotation Xrotation Yrotation
                                        End Site
                                        {
                                            OFFSET 0.8910 -0.0000 0.0000
                                        }
                                      }
                                    }
                                  }
                                }
                              }
                            }
                          }
                        }
                      }
                      JOINT Rshoulder
                      {
                        OFFSET -0.6762 0.0210 1.0051
                        CHANNELS 3 Zrotation Xrotation Yrotation
                        JOINT Rarm
                        {
                          OFFSET 4.3551 -0.0000 -0.0000
                          CHANNELS 3 Zrotation Xrotation Yrotation
                          JOINT Rarm_roll
                          {
                            OFFSET 3.9406 0.0000 0.0000
                            CHANNELS 3 Zrotation Xrotation Yrotation
                            JOINT Rforearm
                            {
                              OFFSET 3.9414 0.0000 0.0000
                              CHANNELS 3 Zrotation Xrotation Yrotation
                              JOINT Rforearmroll
                              {
                                OFFSET 4.4560 0.0000 0.0000
                                CHANNELS 3 Zrotation Xrotation Yrotation
                                JOINT Rhand
                                {
                                  OFFSET 4.4566 -0.0000 -0.0000
                                  CHANNELS 3 Zrotation Xrotation Yrotation
                                  JOINT Rmiddle1
                                  {
                                    OFFSET 2.7267 0.0000 0.0000
                                    CHANNELS 3 Zrotation Xrotation Yrotation
                                    JOINT Rmiddle2
                                    {
                                      OFFSET 1.1590 -0.0000 0.0000
                                      CHANNELS 3 Zrotation Xrotation Yrotation
                                      JOINT Rmiddle3
                                      {
                                        OFFSET 1.1963 0.0000 -0.0000
                                        CHANNELS 3 Zrotation Xrotation Yrotation
                                        End Site
                                        {
                                            OFFSET 1.0712 0.0000 0.0000
                                        }
                                      }
                                    }
                                  }
                                  JOINT Rthumb1
                                  {
                                    OFFSET 0.4559 -0.3316 -0.4171
                                    CHANNELS 3 Zrotation Xrotation Yrotation
                                    JOINT Rthumb2
                                    {
                                      OFFSET 1.6118 0.0000 0.0000
                                      CHANNELS 3 Zrotation Xrotation Yrotation
                                      JOINT Rthumb3
                                      {
                                        OFFSET 1.3772 0.0000 -0.0000
                                        CHANNELS 3 Zrotation Xrotation Yrotation
                                        End Site
                                        {
                                            OFFSET 1.1404 -0.0000 -0.0000
                                        }
                                      }
                                    }
                                  }
                                  JOINT Rindex1
                                  {
                                    OFFSET 2.5330 0.0284 -0.7927
                                    CHANNELS 3 Zrotation Xrotation Yrotation
                                    JOINT Rindex2
                                    {
                                      OFFSET 1.0986 -0.0000 -0.0000
                                      CHANNELS 3 Zrotation Xrotation Yrotation
                                      JOINT Rindex3
                                      {
                                        OFFSET 1.0835 -0.0000 0.0000
                                        CHANNELS 3 Zrotation Xrotation Yrotation
                                        End Site
                                        {
                                            OFFSET 1.1422 0.0000 0.0000
                                        }
                                      }
                                    }
                                  }
                                  JOINT Rring1
                                  {
                                    OFFSET 2.4795 -0.2766 0.6565
                                    CHANNELS 3 Zrotation Xrotation Yrotation
                                    JOINT Rring2
                                    {
                                      OFFSET 1.0728 -0.0000 0.0000
                                      CHANNELS 3 Zrotation Xrotation Yrotation
                                      JOINT Rring3
                                      {
                                        OFFSET 0.8216 -0.0000 0.0000
                                        CHANNELS 3 Zrotation Xrotation Yrotation
                                        End Site
                                        {
                                            OFFSET 1.1344 0.0000 0.0000
                                        }
                                      }
                                    }
                                  }
                                  JOINT Rpinky1
                                  {
                                    OFFSET 2.0231 -0.4889 1.3889
                                    CHANNELS 3 Zrotation Xrotation Yrotation
                                    JOINT Rpinky2
                                    {
                                      OFFSET 0.8723 -0.0000 0.0000
                                      CHANNELS 3 Zrotation Xrotation Yrotation
                                      JOINT Rpinky3
                                      {
                                        OFFSET 0.7154 -0.0000 -0.0000
                                        CHANNELS 3 Zrotation Xrotation Yrotation
                                        End Site
                                        {
                                            OFFSET 0.8911 -0.0000 0.0000
                                        }
                                      }
                                    }
                                  }
                                }
                              }
                            }
                          }
                        }
                      }
                    }
                  }
                }
              }
            }
          }
        }
      }
    }
  }
}
MOTION
Frames:	7
Frame Time:	0.040000
-3.8938 30.6070 -10.1596 43.47 -0.27 -10.42 -137.80 -12.73 -34.86 -0.00 -2.27 -0.00 1.77 -28.01 6.78 0.00 -32.90 0.00 76.88 34.92 -82.67 30.06 0.50 -15.91 -130.69 23.38 -1.41 -0.01 -4.30 -0.00 -15.99 32.88 25.18 -0.00 30.59 0.00 98.50 21.39 -73.00 30.06 -0.50 15.91 -42.25 -74.72 -87.01 26.96 0.29 -0.55 8.46 0.20 -0.59 2.94 0.16 -0.60 -6.39 0.22 -0.58 -10.13 0.31 -0.53 -11.53 0.41 -0.46 -8.04 0.46 -0.41 -6.08 0.50 -0.36 22.14 0.26 2.17 -8.89 -0.00 -0.00 -16.03 7.19 1.07 -92.47 0.75 98.79 -92.37 11.03 0.28 0.00 0.16 -0.00 4.27 -5.74 -12.76 -0.09 -8.95 -1.22 17.67 0.57 -1.29 -20.32 -0.27 0.69 -4.67 -1.73 3.57 -10.70 0.84 -1.13 -19.65 19.30 -41.41 -10.53 -9.46 11.70 4.65 -1.45 2.09 -17.52 4.17 -12.32 -14.57 0.52 -0.79 -9.26 0.57 -0.62 -25.14 -9.94 19.46 -1.45 -1.81 3.23 -10.70 2.47 -2.94 -25.53 -17.33 30.93 -13.28 4.68 -4.74 -4.18 1.27 -1.11 -92.47 -0.74 -98.75 -80.42 -17.62 4.05 0.00 -11.73 -0.00 8.93 -21.76 0.78 0.39 -32.59 1.33 19.15 3.38 17.56 -20.31 0.27 -0.69 -4.67 1.73 -3.57 -10.70 -0.84 1.13 -19.65 -19.30 41.41 -10.54 9.46 -11.69 4.65 1.45 -2.09 -17.53 -4.17 12.32 -14.56 -0.52 0.79 -9.26 -0.57 0.62 -25.14 9.94 -19.46 -1.44 1.81 -3.23 -10.71 -2.47 2.94 -25.53 17.32 -30.93 -13.29 -4.68 4.74 -4.19 -1.27 1.11 
-3.7062 30.6442 -9.4636 44.53 -0.08 -10.43 -139.03 -12.16 -35.79 -0.00 -3.04 -0.00 4.02 -27.69 10.24 0.00 -32.82 0.00 77.15 37.31 -84.48 30.06 0.50 -15.91 -132.74 24.37 -0.37 -0.01 -4.49 -0.00 -16.14 32.94 25.11 -0.00 30.76 0.00 98.26 22.37 -72.79 30.06 -0.50 15.91 -43.24 -75.31 -87.45 27.05 0.24 -0.44 8.55 0.17 -0.48 3.03 0.14 -0.49 -6.30 0.19 -0.47 -10.04 0.26 -0.43 -11.44 0.34 -0.37 -7.95 0.38 -0.33 -5.99 0.41 -0.29 21.79 0.21 1.75 -8.89 -0.00 -0.00 -14.36 6.93 0.93 -92.47 0.75 98.79 -91.93 14.61 1.31 0.00 0.43 -0.00 4.16 -7.02 -12.39 -0.12 -10.85 -1.22 17.71 -0.26 -0.82 -20.32 -0.27 0.69 -4.67 -1.73 3.57 -10.70 0.84 -1.13 -19.65 19.30 -41.41 -10.53 -9.46 11.70 4.65 -1.45 2.09 -17.52 4.17 -12.32 -14.57 0.52 -0.79 -9.26 0.57 -0.62 -25.14 -9.94 19.46 -1.45 -1.81 3.23 -10.70 2.47 -2.94 -25.53 -17.33 30.93 -13.28 4.68 -4.74 -4.18 1.27 -1.11 -92.47 -0.74 -98.75 -81.08 -17.74 1.42 0.00 -11.06 -0.00 8.49 -21.09 0.09 0.37 -31.53 1.32 18.94 2.64 17.52 -20.31 0.27 -0.69 -4.67 1.73 -3.57 -10.70 -0.84 1.13 -19.65 -19.30 41.41 -10.54 9.46 -11.69 4.65 1.45 -2.09 -17.53 -4.17 12.32 -14.56 -0.52 0.79 -9.26 -0.57 0.62 -25.14 9.94 -19.46 -1.44 1.81 -3.23 -10.71 -2.47 2.94 -25.53 17.32 -30.93 -13.29 -4.68 4.74 -4.19 -1.27 1.11 
-3.4282 30.7866 -8.2924 45.59 0.18 -10.66 -140.26 -11.98 -36.21 -0.00 -4.28 -0.00 6.13 -27.28 13.84 0.00 -32.76 0.00 77.81 39.56 -87.04 30.06 0.50 -15.91 -135.28 25.38 1.13 -0.01 -4.89 -0.00 -16.00 33.32 24.82 -0.00 31.21 0.00 97.68 25.02 -72.97 30.06 -0.50 15.91 -44.28 -75.81 -88.01 27.12 0.17 -0.35 8.63 0.12 -0.37 3.11 0.09 -0.38 -6.23 0.13 -0.36 -9.96 0.19 -0.34 -11.37 0.25 -0.30 -7.87 0.29 -0.26 -5.91 0.31 -0.23 21.49 0.15 1.37 -8.89 -0.00 -0.00 -10.77 6.66 1.12 -92.47 0.75 98.79 -91.00 16.43 1.21 0.00 0.15 -0.00 4.30 -6.59 -11.74 -0.11 -10.18 -1.22 16.08 -0.60 -0.16 -20.32 -0.27 0.69 -4.67 -1.73 3.57 -10.70 0.84 -1.13 -19.65 19.30 -41.41 -10.53 -9.46 11.70 4.65 -1.45 2.09 -17.52 4.17 -12.32 -14.57 0.52 -0.79 -9.26 0.57 -0.62 -25.14 -9.94 19.46 -1.45 -1.81 3.23 -10.70 2.47 -2.94 -25.53 -17.33 30.93 -13.28 4.68 -4.74 -4.18 1.27 -1.11 -92.47 -0.74 -98.75 -82.13 -17.02 -1.76 0.00 -10.20 -0.00 8.01 -20.60 -0.91 0.36 -30.72 1.31 18.79 1.95 17.13 -20.31 0.27 -0.69 -4.67 1.73 -3.57 -10.70 -0.84 1.13 -19.65 -19.30 41.41 -10.54 9.46 -11.69 4.65 1.45 -2.09 -17.53 -4.17 12.32 -14.56 -0.52 0.79 -9.26 -0.57 0.62 -25.14 9.94 -19.46 -1.44 1.81 -3.23 -10.71 -2.47 2.94 -25.53 17.32 -30.93 -13.29 -4.68 4.74 -4.19 -1.27 1.11 
-3.1070 31.1618 -7.1014 46.30 0.09 -11.26 -140.82 -11.51 -34.53 -0.00 -4.66 -0.00 6.27 -27.26 14.52 0.00 -32.76 0.00 77.12 40.10 -86.92 30.06 0.50 -15.91 -137.58 26.36 1.60 -0.01 -5.41 -0.00 -15.72 33.41 24.92 -0.00 31.20 0.00 96.74 29.36 -75.33 30.06 -0.50 15.91 -44.88 -76.02 -88.26 27.16 0.18 -0.28 8.66 0.13 -0.31 3.14 0.11 -0.32 -6.19 0.14 -0.30 -9.93 0.19 -0.28 -11.33 0.24 -0.24 -7.84 0.27 -0.20 -5.88 0.28 -0.18 21.36 0.15 1.12 -8.89 -0.00 -0.00 -7.06 6.39 1.29 -92.47 0.75 98.79 -89.35 14.79 -0.99 0.00 0.32 -0.00 4.73 -4.12 -10.47 -0.07 -6.43 -1.22 10.06 -0.77 -0.86 -20.32 -0.27 0.69 -4.67 -1.73 3.57 -10.70 0.84 -1.13 -19.65 19.30 -41.41 -10.53 -9.46 11.70 4.65 -1.45 2.09 -17.52 4.17 -12.32 -14.57 0.52 -0.79 -9.26 0.57 -0.62 -25.14 -9.94 19.46 -1.45 -1.81 3.23 -10.70 2.47 -2.94 -25.53 -17.33 30.93 -13.28 4.68 -4.74 -4.18 1.27 -1.11 -92.47 -0.74 -98.75 -82.94 -16.68 -4.12 0.00 -9.81 -0.00 7.55 -20.43 -2.13 0.36 -30.40 1.31 17.22 1.97 16.96 -20.31 0.27 -0.69 -4.67 1.73 -3.57 -10.70 -0.84 1.13 -19.65 -19.30 41.41 -10.54 9.46 -11.69 4.65 1.45 -2.09 -17.53 -4.17 12.32 -14.56 -0.52 0.79 -9.26 -0.57 0.62 -25.14 9.94 -19.46 -1.44 1.81 -3.23 -10.71 -2.47 2.94 -25.53 17.32 -30.93 -13.29 -4.68 4.74 -4.19 -1.27 1.11 
-2.8834 31.5699 -6.1164 46.56 -0.40 -11.99 -140.65 -10.88 -31.63 -0.00 -4.11 -0.00 4.96 -27.54 12.64 0.00 -32.81 0.00 76.16 40.27 -84.96 30.06 0.50 -15.91 -139.33 27.04 1.75 -0.01 -5.97 -0.00 -14.83 33.70 24.96 -0.00 31.15 0.00 98.05 33.43 -78.77 30.06 -0.50 15.91 -44.61 -76.27 -87.92 27.20 0.25 -0.29 8.71 0.20 -0.32 3.19 0.18 -0.33 -6.15 0.22 -0.31 -9.89 0.27 -0.27 -11.29 0.31 -0.22 -7.80 0.34 -0.18 -5.84 0.35 -0.14 21.18 0.23 1.11 -8.89 -0.00 -0.00 -4.85 5.79 1.59 -92.47 0.75 98.79 -87.36 13.30 -3.42 0.00 1.30 -0.00 5.02 -2.50 -9.22 -0.04 -3.96 -1.21 6.95 -0.72 -1.94 -20.32 -0.27 0.69 -4.67 -1.73 3.57 -10.70 0.84 -1.13 -19.65 19.30 -41.41 -10.53 -9.46 11.70 4.65 -1.45 2.09 -17.52 4.17 -12.32 -14.57 0.52 -0.79 -9.26 0.57 -0.62 -25.14 -9.94 19.46 -1.45 -1.81 3.23 -10.70 2.47 -2.94 -25.53 -17.33 30.93 -13.28 4.68 -4.74 -4.18 1.27 -1.11 -92.47 -0.74 -98.75 -83.45 -17.32 -5.87 0.00 -10.05 -0.00 7.10 -21.08 -3.77 0.37 -31.28 1.32 14.27 2.71 18.19 -20.31 0.27 -0.69 -4.67 1.73 -3.57 -10.70 -0.84 1.13 -19.65 -19.30 41.41 -10.54 9.46 -11.69 4.65 1.45 -2.09 -17.53 -4.17 12.32 -14.56 -0.52 0.79 -9.26 -0.57 0.62 -25.14 9.94 -19.46 -1.44 1.81 -3.23 -10.71 -2.47 2.94 -25.53 17.32 -30.93 -13.29 -4.68 4.74 -4.19 -1.27 1.11 
-2.7285 31.8461 -5.2563 46.60 -1.16 -12.75 -140.35 -10.23 -29.29 -0.00 -3.30 -0.00 4.21 -27.68 11.67 0.00 -32.83 0.00 75.35 39.35 -82.82 30.06 0.50 -15.91 -140.83 27.18 3.72 -0.01 -6.31 -0.00 -10.76 34.83 20.41 -0.00 31.24 0.00 97.76 36.29 -81.26 30.06 -0.50 15.91 -44.40 -76.46 -87.60 27.23 0.34 -0.28 8.74 0.29 -0.33 3.22 0.27 -0.35 -6.11 0.30 -0.32 -9.85 0.35 -0.26 -11.26 0.39 -0.19 -7.76 0.41 -0.14 -5.80 0.43 -0.10 21.04 0.31 1.06 -8.89 -0.00 -0.00 -3.59 5.41 1.47 -92.47 0.75 98.79 -84.39 10.96 -6.18 0.00 1.68 -0.00 5.06 -3.24 -7.60 -0.05 -5.06 -1.21 5.61 0.55 -2.53 -20.32 -0.27 0.69 -4.67 -1.73 3.57 -10.70 0.84 -1.13 -19.65 19.30 -41.41 -10.53 -9.46 11.70 4.65 -1.45 2.09 -17.52 4.17 -12.32 -14.57 0.52 -0.79 -9.26 0.57 -0.62 -25.14 -9.94 19.46 -1.45 -1.81 3.23 -10.70 2.47 -2.94 -25.53 -17.33 30.93 -13.28 4.68 -4.74 -4.18 1.27 -1.11 -92.47 -0.74 -98.75 -84.04 -18.86 -6.36 0.00 -10.43 -0.00 6.68 -22.72 -5.74 0.40 -33.64 1.33 11.05 3.26 20.51 -20.31 0.27 -0.69 -4.67 1.73 -3.57 -10.70 -0.84 1.13 -19.65 -19.30 41.41 -10.54 9.46 -11.69 4.65 1.45 -2.09 -17.53 -4.17 12.32 -14.56 -0.52 0.79 -9.26 -0.57 0.62 -25.14 9.94 -19.46 -1.44 1.81 -3.23 -10.71 -2.47 2.94 -25.53 17.32 -30.93 -13.29 -4.68 4.74 -4.19 -1.27 1.11 
-2.6340 32.0087 -4.5841 46.56 -2.00 -13.37 -140.05 -9.88 -27.58 -0.00 -2.74 -0.00 3.94 -27.73 11.49 0.00 -32.83 0.00 74.20 38.55 -81.12 30.06 0.50 -15.91 -140.44 26.89 4.24 -0.01 -6.17 -0.00 -8.37 35.34 17.07 -0.00 31.32 0.00 95.33 36.80 -78.54 30.06 -0.50 15.91 -44.09 -76.73 -87.23 27.28 0.42 -0.28 8.79 0.37 -0.34 3.27 0.35 -0.36 -6.07 0.38 -0.33 -9.81 0.43 -0.26 -11.21 0.47 -0.17 -7.71 0.49 -0.11 -5.76 0.50 -0.06 20.85 0.39 1.04 -8.89 -0.00 -0.00 -3.27 5.15 1.31 -92.47 0.75 98.79 -80.53 9.08 -8.06 0.00 2.06 -0.00 5.10 -4.99 -5.87 -0.08 -7.65 -1.22 4.39 1.08 -1.97 -20.32 -0.27 0.69 -4.67 -1.73 3.57 -10.70 0.84 -1.13 -19.65 19.30 -41.41 -10.53 -9.46 11.70 4.65 -1.45 2.09 -17.52 4.17 -12.32 -14.57 0.52 -0.79 -9.26 0.57 -0.62 -25.14 -9.94 19.46 -1.45 -1.81 3.23 -10.70 2.47 -2.94 -25.53 -17.33 30.93 -13.28 4.68 -4.74 -4.18 1.27 -1.11 -92.47 -0.74 -98.75 -84.38 -20.36 -5.13 0.00 -10.46 -0.00 6.86 -25.34 -6.49 0.47 -37.48 1.37 6.31 2.96 22.37 -20.31 0.27 -0.69 -4.67 1.73 -3.57 -10.70 -0.84 1.13 -19.65 -19.30 41.41 -10.54 9.46 -11.69 4.65 1.45 -2.09 -17.53 -4.17 12.32 -14.56 -0.52 0.79 -9.26 -0.57 0.62 -25.14 9.94 -19.46 -1.44 1.81 -3.23 -10.71 -2.47 2.94 -25.53 17.32 -30.93 -13.29 -4.68 4.74 -4.19 -1.27 1.11 
